<?xml version="1.0" encoding="UTF-8"?>
<svg id="Layer_1" data-name="Layer 1" xmlns="http://www.w3.org/2000/svg" xmlns:xlink="http://www.w3.org/1999/xlink" viewBox="0 0 129.59 30.64">
  <defs>
    <style>
      .cls-1 {
        fill: #009a4a;
      }

      .cls-2 {
        fill: url(#linear-gradient);
      }

      .cls-3 {
        fill: #fff;
      }

      .cls-4 {
        fill: #ec1c3f;
      }

      .cls-5 {
        fill: #35b34a;
      }
    </style>
    <linearGradient id="linear-gradient" x1="5.78" y1="6.96" x2="17.92" y2="-1.23" gradientUnits="userSpaceOnUse">
      <stop offset="0" stop-color="#009345"/>
      <stop offset=".03" stop-color="#039545"/>
      <stop offset=".22" stop-color="#19a247"/>
      <stop offset=".42" stop-color="#29ab48"/>
      <stop offset=".66" stop-color="#32b149"/>
      <stop offset="1" stop-color="#35b34a"/>
    </linearGradient>
  </defs>
  <path class="cls-4" d="M20.71,1.67v4.59h-8.02v21.78h-4.63V6.17H0v-2.57c0-1.06.86-1.93,1.93-1.93h18.79Z"/>
  <circle class="cls-3" cx="2.26" cy="3.99" r="2.03"/>
  <polygon class="cls-5" points="3.89 3.3 2.95 3.3 2.95 2.36 1.49 2.36 1.49 3.3 .55 3.3 .55 4.76 1.49 4.76 1.49 5.7 2.95 5.7 2.95 4.76 3.89 4.76 3.89 3.3"/>
  <path class="cls-1" d="M8.06,18.44s-4.08,1.48-5.77,4.35c-1.53,2.6-1.35,4.87-.29,7.86,0,0-.26-4.06,2.32-5.7s3.74-2.16,3.74-2.16v-4.35Z"/>
  <g>
    <path class="cls-5" d="M6.03,7.32c-.52-.85-.77-1.8-.88-2.52-1.99,3.3-.84,6.48-.53,6.93.53.78,1.92,2.26,8.08,6.04v3.71s4.47-1.94,4.47-4.25-4.76-5.29-9.05-7.89c0,0-1.07-.4-2.08-2.04Z"/>
    <path class="cls-2" d="M19.88,1.67S15.68-.2,12.11.02c-3.57.22-4.68,1.21-6.84,4.59-.04.07-.08.13-.12.2.11.71.36,1.66.88,2.52,1.01,1.64,2.08,2.04,2.08,2.04v-3.19c0-2.15,3.37-4.42,11.77-4.49Z"/>
  </g>
  <path class="cls-1" d="M12.7,17.78s.83.9.63,2.1-.63,1.61-.63,1.61v-3.71Z"/>
  <g>
    <path class="cls-3" d="M22.52,13.2l.18-1.94h.14c1.29.78,2.51,1.17,3.64,1.17.71,0,1.33-.24,1.33-.76,0-.64-.85-.82-1.86-1.04-2.17-.46-3.51-1-3.51-2.85s1.58-2.89,3.58-2.89c1.32,0,2.55.35,3.59,1.01l-.19,1.98h-.14c-1.18-.69-2.33-1.04-3.39-1.04-.68,0-1.18.28-1.18.74,0,.61.8.79,1.78,1.01,2.25.5,3.58,1.14,3.58,3.03s-1.64,2.78-3.59,2.78c-1.4,0-2.76-.42-3.95-1.19Z"/>
    <path class="cls-3" d="M31.24,5.02h6.77v2.03h-4.51v1.55h4.23v2.04h-4.23v1.57h4.51v2.04h-6.77V5.02Z"/>
    <path class="cls-3" d="M39.4,5.02h2.73l2.46,5.58,2.47-5.58h2.73v9.23h-2.28v-5.52l-2.4,5.52h-1.04l-2.41-5.48v5.48h-2.26V5.02Z"/>
    <path class="cls-3" d="M51.38,5.02h6.77v2.03h-4.51v1.55h4.23v2.04h-4.23v1.57h4.51v2.04h-6.77V5.02Z"/>
    <path class="cls-3" d="M59.55,5.02h2.3l4.11,5.57v-5.57h2.26v9.23h-2.32l-4.11-5.47v5.47h-2.25V5.02Z"/>
    <path class="cls-3" d="M75.68,7.05h-2.83v-2.03h7.97v2.03h-2.86v7.2h-2.28v-7.2Z"/>
    <path class="cls-3" d="M81.03,9.63c0-2.89,2.04-4.75,4.94-4.75s4.95,1.93,4.95,4.75-2.12,4.76-4.95,4.76-4.94-1.97-4.94-4.76ZM88.59,9.63c0-1.54-1.08-2.69-2.62-2.69s-2.61,1.19-2.61,2.69,1.1,2.71,2.61,2.71,2.62-1.15,2.62-2.71Z"/>
    <path class="cls-3" d="M92.16,5.02h2.3l4.11,5.57v-5.57h2.26v9.23h-2.32l-4.11-5.47v5.47h-2.25V5.02Z"/>
    <path class="cls-3" d="M101.65,14l3.48-8.98h2.98l3.46,8.98v.25h-2.44l-.61-1.65h-3.82l-.61,1.65h-2.44v-.25ZM107.78,10.56l-1.17-3.14-1.17,3.14h2.33Z"/>
    <path class="cls-3" d="M111.97,13.2l.18-1.94h.14c1.29.78,2.51,1.17,3.64,1.17.71,0,1.33-.24,1.33-.76,0-.64-.85-.82-1.86-1.04-2.17-.46-3.51-1-3.51-2.85s1.58-2.89,3.58-2.89c1.32,0,2.55.35,3.59,1.01l-.19,1.98h-.14c-1.18-.69-2.33-1.04-3.39-1.04-.68,0-1.18.28-1.18.74,0,.61.81.79,1.78,1.01,2.25.5,3.58,1.14,3.58,3.03s-1.64,2.78-3.59,2.78c-1.4,0-2.76-.42-3.95-1.19Z"/>
    <path class="cls-3" d="M119.67,14l3.48-8.98h2.98l3.46,8.98v.25h-2.44l-.61-1.65h-3.82l-.61,1.65h-2.44v-.25ZM125.81,10.56l-1.17-3.14-1.17,3.14h2.33Z"/>
  </g>
  <g>
    <path class="cls-3" d="M23.25,18.43h1.98l2.83,6.55,2.84-6.55h1.96v9.23h-1.58v-6.66l-2.84,6.66h-.76l-2.84-6.59v6.59h-1.58v-9.23Z"/>
    <path class="cls-3" d="M34.33,24.26c0-2.17,1.42-3.54,3.51-3.54,1.92,0,3.25,1.36,3.25,3.22v.74h-5.16c.12,1.18.92,1.89,2.22,1.89.82,0,1.64-.21,2.34-.62h.14l.19,1.11c-.74.47-1.73.75-2.8.75-2.19,0-3.69-1.4-3.69-3.54ZM39.68,23.64c-.03-.94-.71-1.72-1.82-1.72s-1.8.67-1.96,1.72h3.78Z"/>
    <path class="cls-3" d="M42.24,24.26c0-2.05,1.18-3.54,3.14-3.54.89,0,1.62.32,2.07.93v-3.36h1.48v9.37h-1.4v-.93c-.44.71-1.19,1.07-2.15,1.07-1.94,0-3.14-1.5-3.14-3.54ZM47.44,25.09v-1.67c-.18-.82-.9-1.33-1.8-1.33-1.19,0-1.86.96-1.86,2.17s.68,2.17,1.86,2.17c.92,0,1.62-.51,1.8-1.33Z"/>
    <path class="cls-3" d="M50.51,19.07c0-.56.36-.9.93-.9s.9.35.9.9c0,.53-.36.89-.9.89-.57,0-.93-.36-.93-.89ZM50.68,20.86h1.5v6.8h-1.5v-6.8Z"/>
    <path class="cls-3" d="M53.52,24.26c0-2.14,1.42-3.54,3.55-3.54,1.04,0,2.01.31,2.68.83l-.19,1.24h-.14c-.79-.5-1.43-.69-2.14-.69-1.39,0-2.22.9-2.22,2.17s.89,2.17,2.22,2.17c.71,0,1.36-.22,2.14-.72h.14l.19,1.26c-.67.51-1.64.83-2.68.83-2.15,0-3.55-1.42-3.55-3.54Z"/>
    <path class="cls-3" d="M60.72,25.58c0-1.4,1.11-2.15,2.57-2.15.82,0,1.57.28,2.01.71v-.68c0-1.01-.58-1.53-1.74-1.53-.68,0-1.39.21-2.11.62h-.14l-.18-1.15c.71-.43,1.65-.68,2.64-.68,1.96,0,3.02.94,3.02,2.55v4.39h-1.39v-.76c-.43.53-1.19.9-2.12.9-1.48,0-2.57-.83-2.57-2.22ZM65.3,25.97v-.76c-.33-.5-.89-.78-1.62-.78-.9,0-1.44.46-1.44,1.15s.54,1.14,1.44,1.14c.72,0,1.3-.26,1.62-.75Z"/>
    <path class="cls-3" d="M68.46,18.29h1.47v9.37h-1.47v-9.37Z"/>
    <path class="cls-3" d="M74.18,23.04c0-2.85,1.93-4.75,4.75-4.75,1.36,0,2.64.42,3.59,1.17l-.18,1.46h-.22c-.89-.78-1.96-1.14-2.98-1.14-2.07,0-3.33,1.39-3.33,3.26s1.29,3.26,3.33,3.26c1.01,0,2.08-.36,2.98-1.14h.22l.18,1.46c-.96.75-2.24,1.18-3.59,1.18-2.86,0-4.75-1.96-4.75-4.76Z"/>
    <path class="cls-3" d="M83.32,24.26c0-2.17,1.42-3.54,3.51-3.54,1.92,0,3.25,1.36,3.25,3.22v.74h-5.16c.13,1.18.92,1.89,2.22,1.89.82,0,1.64-.21,2.35-.62h.14l.19,1.11c-.73.47-1.73.75-2.8.75-2.19,0-3.69-1.4-3.69-3.54ZM88.66,23.64c-.03-.94-.71-1.72-1.82-1.72s-1.8.67-1.96,1.72h3.77Z"/>
    <path class="cls-3" d="M91.46,20.86h1.36v1.29c.42-.93,1.26-1.43,2.3-1.43,1.48,0,2.47,1.01,2.47,2.5v4.44h-1.5v-4.07c0-.93-.6-1.5-1.54-1.5-.83,0-1.44.49-1.62,1.33v4.23h-1.47v-6.8Z"/>
    <path class="cls-3" d="M99.73,25.75v-3.55h-1.15v-1.33h1.15v-1.6l1.48-.21v1.8h1.44v1.33h-1.44v3.4c0,.55.29.82.82.82.24,0,.46-.04.65-.12h.14l.29,1.18c-.4.18-.86.26-1.37.26-1.19,0-2.01-.74-2.01-1.98Z"/>
    <path class="cls-3" d="M103.59,24.26c0-2.17,1.42-3.54,3.51-3.54,1.92,0,3.25,1.36,3.25,3.22v.74h-5.16c.13,1.18.92,1.89,2.22,1.89.82,0,1.64-.21,2.35-.62h.14l.19,1.11c-.73.47-1.73.75-2.8.75-2.19,0-3.69-1.4-3.69-3.54ZM108.93,23.64c-.03-.94-.71-1.72-1.82-1.72s-1.8.67-1.96,1.72h3.77Z"/>
    <path class="cls-3" d="M111.73,20.86h1.36v.83c.32-.58.94-.9,1.66-.9.24,0,.49.03.74.08v1.46h-.11c-.25-.1-.49-.14-.75-.14-.78,0-1.43.49-1.43,1.24v4.23h-1.47v-6.8Z"/>
  </g>
</svg>