<?xml version="1.0" encoding="UTF-8"?>
<svg id="Layer_1" data-name="Layer 1" xmlns="http://www.w3.org/2000/svg" xmlns:xlink="http://www.w3.org/1999/xlink" viewBox="0 0 142.86 59.46">
  <defs>
    <style>
      .cls-1 {
        fill: #009a4a;
      }

      .cls-2 {
        fill: url(#linear-gradient);
      }

      .cls-3 {
        fill: #fff;
      }

      .cls-4 {
        fill: #ec1c3f;
      }

      .cls-5 {
        fill: #35b34a;
      }
    </style>
    <linearGradient id="linear-gradient" x1="11.21" y1="13.51" x2="34.77" y2="-2.39" gradientUnits="userSpaceOnUse">
      <stop offset="0" stop-color="#009345"/>
      <stop offset=".03" stop-color="#039545"/>
      <stop offset=".22" stop-color="#19a247"/>
      <stop offset=".42" stop-color="#29ab48"/>
      <stop offset=".66" stop-color="#32b149"/>
      <stop offset="1" stop-color="#35b34a"/>
    </linearGradient>
  </defs>
  <path class="cls-4" d="M40.19,3.25v8.9h-15.55v42.25h-8.99V11.97H0v-4.98c0-2.07,1.67-3.74,3.74-3.74h36.45Z"/>
  <circle class="cls-3" cx="4.38" cy="7.73" r="3.93"/>
  <polygon class="cls-5" points="7.55 6.4 5.73 6.4 5.73 4.58 2.89 4.58 2.89 6.4 1.07 6.4 1.07 9.24 2.89 9.24 2.89 11.06 5.73 11.06 5.73 9.24 7.55 9.24 7.55 6.4"/>
  <path class="cls-1" d="M15.64,35.77s-7.92,2.88-11.19,8.43c-2.96,5.04-2.63,9.44-.56,15.25,0,0-.5-7.88,4.49-11.06s7.25-4.19,7.25-4.19v-8.43Z"/>
  <g>
    <path class="cls-5" d="M11.69,14.2c-1.02-1.66-1.49-3.5-1.71-4.88-3.86,6.41-1.64,12.56-1.03,13.45,1.03,1.51,3.72,4.38,15.68,11.73v7.2s8.66-3.77,8.66-8.24-9.23-10.27-17.56-15.3c0,0-2.08-.77-4.04-3.96Z"/>
    <path class="cls-2" d="M38.57,3.25S30.42-.39,23.5.03c-6.92.42-9.09,2.35-13.28,8.9-.08.13-.16.26-.24.39.22,1.38.69,3.22,1.71,4.88,1.96,3.19,4.04,3.96,4.04,3.96v-6.2c0-4.16,6.55-8.57,22.84-8.72Z"/>
  </g>
  <path class="cls-1" d="M24.63,34.5s1.6,1.76,1.22,4.08-1.22,3.13-1.22,3.13v-7.2Z"/>
  <g>
    <path class="cls-3" d="M40.63,30.94l.17-1.85h.13c1.23.74,2.4,1.11,3.47,1.11.68,0,1.27-.23,1.27-.73,0-.61-.81-.78-1.78-.99-2.07-.44-3.35-.95-3.35-2.72s1.51-2.76,3.42-2.76c1.26,0,2.44.33,3.43.97l-.19,1.9h-.13c-1.13-.66-2.23-.99-3.23-.99-.65,0-1.13.26-1.13.7,0,.58.77.76,1.7.97,2.15.48,3.42,1.09,3.42,2.89s-1.56,2.65-3.43,2.65c-1.34,0-2.64-.4-3.78-1.14Z"/>
    <path class="cls-3" d="M48.95,23.14h6.47v1.93h-4.31v1.48h4.04v1.95h-4.04v1.5h4.31v1.95h-6.47v-8.81Z"/>
    <path class="cls-3" d="M56.75,23.14h2.61l2.35,5.33,2.36-5.33h2.61v8.81h-2.17v-5.27l-2.29,5.27h-.99l-2.31-5.23v5.23h-2.16v-8.81Z"/>
    <path class="cls-3" d="M68.19,23.14h6.47v1.93h-4.31v1.48h4.04v1.95h-4.04v1.5h4.31v1.95h-6.47v-8.81Z"/>
    <path class="cls-3" d="M75.98,23.14h2.2l3.92,5.31v-5.31h2.16v8.81h-2.21l-3.92-5.22v5.22h-2.15v-8.81Z"/>
    <path class="cls-3" d="M91.39,25.07h-2.7v-1.93h7.61v1.93h-2.73v6.88h-2.17v-6.88Z"/>
    <path class="cls-3" d="M96.49,27.54c0-2.76,1.95-4.53,4.72-4.53s4.73,1.84,4.73,4.53-2.03,4.54-4.73,4.54-4.72-1.88-4.72-4.54ZM103.71,27.54c0-1.47-1.03-2.57-2.5-2.57s-2.49,1.14-2.49,2.57,1.05,2.58,2.49,2.58,2.5-1.1,2.5-2.58Z"/>
    <path class="cls-3" d="M107.12,23.14h2.2l3.92,5.31v-5.31h2.16v8.81h-2.21l-3.92-5.22v5.22h-2.15v-8.81Z"/>
    <path class="cls-3" d="M116.18,31.71l3.33-8.57h2.85l3.3,8.57v.24h-2.33l-.58-1.58h-3.64l-.58,1.58h-2.33v-.24ZM122.04,28.42l-1.11-2.99-1.11,2.99h2.23Z"/>
    <path class="cls-3" d="M126.03,30.94l.17-1.85h.13c1.23.74,2.4,1.11,3.47,1.11.68,0,1.27-.23,1.27-.73,0-.61-.81-.78-1.78-.99-2.07-.44-3.35-.95-3.35-2.72s1.51-2.76,3.42-2.76c1.26,0,2.44.33,3.43.97l-.19,1.9h-.13c-1.13-.66-2.23-.99-3.23-.99-.65,0-1.13.26-1.13.7,0,.58.77.76,1.7.97,2.15.48,3.42,1.09,3.42,2.89s-1.56,2.65-3.43,2.65c-1.34,0-2.64-.4-3.78-1.14Z"/>
    <path class="cls-3" d="M133.39,31.71l3.33-8.57h2.85l3.3,8.57v.24h-2.33l-.58-1.58h-3.64l-.58,1.58h-2.33v-.24ZM139.24,28.42l-1.11-2.99-1.11,2.99h2.23Z"/>
  </g>
  <g>
    <path class="cls-3" d="M41.33,35.94h1.89l2.7,6.25,2.72-6.25h1.87v8.81h-1.51v-6.36l-2.72,6.36h-.73l-2.72-6.29v6.29h-1.51v-8.81Z"/>
    <path class="cls-3" d="M51.91,41.51c0-2.07,1.35-3.38,3.35-3.38,1.83,0,3.1,1.3,3.1,3.07v.7h-4.93c.12,1.13.87,1.8,2.12,1.8.78,0,1.56-.2,2.24-.6h.13l.19,1.06c-.7.45-1.66.72-2.68.72-2.09,0-3.52-1.34-3.52-3.38ZM57.01,40.91c-.03-.9-.68-1.64-1.74-1.64s-1.72.64-1.87,1.64h3.6Z"/>
    <path class="cls-3" d="M59.45,41.51c0-1.96,1.13-3.38,2.99-3.38.85,0,1.55.31,1.97.89v-3.21h1.42v8.94h-1.34v-.89c-.42.68-1.14,1.02-2.05,1.02-1.85,0-2.99-1.43-2.99-3.38ZM64.42,42.3v-1.59c-.17-.78-.86-1.27-1.72-1.27-1.14,0-1.78.91-1.78,2.07s.65,2.07,1.78,2.07c.87,0,1.55-.49,1.72-1.27Z"/>
    <path class="cls-3" d="M67.35,36.55c0-.53.35-.86.89-.86s.86.33.86.86c0,.5-.34.85-.86.85-.54,0-.89-.35-.89-.85ZM67.51,38.26h1.43v6.49h-1.43v-6.49Z"/>
    <path class="cls-3" d="M70.23,41.51c0-2.04,1.35-3.38,3.39-3.38.99,0,1.92.29,2.56.8l-.19,1.18h-.13c-.76-.48-1.36-.66-2.04-.66-1.32,0-2.12.86-2.12,2.07s.85,2.07,2.12,2.07c.68,0,1.3-.21,2.04-.69h.13l.19,1.21c-.64.49-1.56.8-2.56.8-2.05,0-3.39-1.35-3.39-3.38Z"/>
    <path class="cls-3" d="M77.1,42.77c0-1.34,1.06-2.05,2.45-2.05.78,0,1.5.27,1.92.68v-.65c0-.97-.56-1.46-1.66-1.46-.65,0-1.32.2-2.01.6h-.13l-.17-1.1c.68-.41,1.58-.65,2.52-.65,1.87,0,2.89.9,2.89,2.44v4.19h-1.32v-.73c-.41.5-1.14.86-2.03.86-1.42,0-2.45-.8-2.45-2.12ZM81.47,43.14v-.73c-.32-.48-.85-.74-1.55-.74-.86,0-1.38.44-1.38,1.1s.52,1.09,1.38,1.09c.69,0,1.25-.25,1.55-.72Z"/>
    <path class="cls-3" d="M84.49,35.81h1.4v8.94h-1.4v-8.94Z"/>
    <path class="cls-3" d="M89.96,40.34c0-2.72,1.84-4.53,4.53-4.53,1.3,0,2.52.4,3.43,1.11l-.17,1.39h-.21c-.85-.74-1.87-1.09-2.85-1.09-1.97,0-3.18,1.32-3.18,3.11s1.23,3.11,3.18,3.11c.97,0,1.99-.34,2.85-1.09h.21l.17,1.39c-.91.72-2.13,1.13-3.43,1.13-2.73,0-4.53-1.87-4.53-4.55Z"/>
    <path class="cls-3" d="M98.68,41.51c0-2.07,1.35-3.38,3.35-3.38,1.83,0,3.1,1.3,3.1,3.07v.7h-4.93c.12,1.13.87,1.8,2.12,1.8.78,0,1.56-.2,2.24-.6h.13l.19,1.06c-.7.45-1.66.72-2.68.72-2.09,0-3.52-1.34-3.52-3.38ZM103.78,40.91c-.03-.9-.68-1.64-1.74-1.64s-1.72.64-1.87,1.64h3.6Z"/>
    <path class="cls-3" d="M106.45,38.26h1.3v1.23c.4-.89,1.21-1.36,2.2-1.36,1.42,0,2.36.97,2.36,2.39v4.24h-1.43v-3.88c0-.89-.57-1.43-1.47-1.43-.8,0-1.38.46-1.55,1.27v4.04h-1.4v-6.49Z"/>
    <path class="cls-3" d="M114.35,42.92v-3.39h-1.1v-1.27h1.1v-1.52l1.42-.2v1.72h1.38v1.27h-1.38v3.25c0,.53.28.78.78.78.23,0,.44-.04.62-.12h.13l.28,1.13c-.38.17-.82.25-1.31.25-1.14,0-1.92-.7-1.92-1.89Z"/>
    <path class="cls-3" d="M118.03,41.51c0-2.07,1.35-3.38,3.35-3.38,1.83,0,3.1,1.3,3.1,3.07v.7h-4.93c.12,1.13.87,1.8,2.12,1.8.78,0,1.56-.2,2.24-.6h.13l.19,1.06c-.7.45-1.66.72-2.68.72-2.09,0-3.52-1.34-3.52-3.38ZM123.14,40.91c-.03-.9-.68-1.64-1.74-1.64s-1.72.64-1.87,1.64h3.6Z"/>
    <path class="cls-3" d="M125.8,38.26h1.3v.8c.3-.56.9-.86,1.59-.86.23,0,.46.03.7.08v1.39h-.11c-.24-.09-.46-.13-.72-.13-.74,0-1.36.46-1.36,1.18v4.04h-1.4v-6.49Z"/>
  </g>
</svg>