<?xml version="1.0" encoding="UTF-8"?>
<svg id="Layer_1" data-name="Layer 1" xmlns="http://www.w3.org/2000/svg" xmlns:xlink="http://www.w3.org/1999/xlink" viewBox="0 0 251.44 59.46">
  <defs>
    <style>
      .cls-1 {
        fill: #009a4a;
      }

      .cls-2 {
        fill: url(#linear-gradient);
      }

      .cls-3 {
        fill: #fff;
      }

      .cls-4 {
        fill: #ec1c3f;
      }

      .cls-5 {
        fill: #35b34a;
      }
    </style>
    <linearGradient id="linear-gradient" x1="11.21" y1="13.51" x2="34.77" y2="-2.39" gradientUnits="userSpaceOnUse">
      <stop offset="0" stop-color="#009345"/>
      <stop offset=".03" stop-color="#039545"/>
      <stop offset=".22" stop-color="#19a247"/>
      <stop offset=".42" stop-color="#29ab48"/>
      <stop offset=".66" stop-color="#32b149"/>
      <stop offset="1" stop-color="#35b34a"/>
    </linearGradient>
  </defs>
  <path class="cls-4" d="M40.19,3.25v8.9h-15.55v42.25h-8.99V11.97H0v-4.98c0-2.07,1.67-3.74,3.74-3.74h36.45Z"/>
  <circle class="cls-3" cx="4.38" cy="7.73" r="3.93"/>
  <polygon class="cls-5" points="7.55 6.4 5.73 6.4 5.73 4.58 2.89 4.58 2.89 6.4 1.07 6.4 1.07 9.24 2.89 9.24 2.89 11.06 5.73 11.06 5.73 9.24 7.55 9.24 7.55 6.4"/>
  <path class="cls-1" d="M15.64,35.77s-7.92,2.88-11.19,8.43c-2.96,5.04-2.63,9.44-.56,15.25,0,0-.5-7.88,4.49-11.06s7.25-4.19,7.25-4.19v-8.43Z"/>
  <g>
    <path class="cls-5" d="M11.69,14.2c-1.02-1.66-1.49-3.5-1.71-4.88-3.86,6.41-1.64,12.56-1.03,13.45,1.03,1.51,3.72,4.38,15.68,11.73v7.2s8.66-3.77,8.66-8.24-9.23-10.27-17.56-15.3c0,0-2.08-.77-4.04-3.96Z"/>
    <path class="cls-2" d="M38.57,3.25S30.42-.39,23.5.03c-6.92.42-9.09,2.35-13.28,8.9-.08.13-.16.26-.24.39.22,1.38.69,3.22,1.71,4.88,1.96,3.19,4.04,3.96,4.04,3.96v-6.2c0-4.16,6.55-8.57,22.84-8.72Z"/>
  </g>
  <path class="cls-1" d="M24.63,34.5s1.6,1.76,1.22,4.08-1.22,3.13-1.22,3.13v-7.2Z"/>
  <g>
    <path class="cls-3" d="M43.69,25.6l.35-3.77h.27c2.5,1.51,4.87,2.26,7.05,2.26,1.37,0,2.58-.46,2.58-1.48,0-1.24-1.64-1.59-3.61-2.02-4.2-.89-6.81-1.94-6.81-5.52s3.07-5.6,6.95-5.6c2.56,0,4.95.67,6.97,1.97l-.38,3.85h-.27c-2.29-1.35-4.52-2.02-6.57-2.02-1.32,0-2.29.54-2.29,1.43,0,1.18,1.56,1.54,3.45,1.97,4.36.97,6.95,2.21,6.95,5.87s-3.18,5.39-6.97,5.39c-2.72,0-5.36-.81-7.67-2.32Z"/>
    <path class="cls-3" d="M60.61,9.75h13.14v3.93h-8.75v3.02h8.21v3.96h-8.21v3.04h8.75v3.96h-13.14V9.75Z"/>
    <path class="cls-3" d="M76.45,9.75h5.31l4.77,10.82,4.79-10.82h5.3v17.91h-4.42v-10.72l-4.66,10.72h-2.02l-4.69-10.64v10.64h-4.39V9.75Z"/>
    <path class="cls-3" d="M99.7,9.75h13.14v3.93h-8.75v3.02h8.21v3.96h-8.21v3.04h8.75v3.96h-13.14V9.75Z"/>
    <path class="cls-3" d="M115.54,9.75h4.47l7.97,10.8v-10.8h4.39v17.91h-4.5l-7.97-10.61v10.61h-4.36V9.75Z"/>
    <path class="cls-3" d="M146.84,13.68h-5.49v-3.93h15.46v3.93h-5.55v13.97h-4.42v-13.97Z"/>
    <path class="cls-3" d="M157.22,18.68c0-5.6,3.96-9.21,9.59-9.21s9.61,3.74,9.61,9.21-4.12,9.24-9.61,9.24-9.59-3.82-9.59-9.24ZM171.89,18.68c0-2.99-2.1-5.22-5.09-5.22s-5.06,2.32-5.06,5.22,2.13,5.25,5.06,5.25,5.09-2.23,5.09-5.25Z"/>
    <path class="cls-3" d="M178.82,9.75h4.47l7.97,10.8v-10.8h4.39v17.91h-4.5l-7.97-10.61v10.61h-4.36V9.75Z"/>
    <path class="cls-3" d="M197.22,27.17l6.76-17.42h5.79l6.7,17.42v.48h-4.74l-1.19-3.2h-7.4l-1.18,3.2h-4.74v-.48ZM209.12,20.49l-2.26-6.08-2.26,6.08h4.53Z"/>
    <path class="cls-3" d="M217.24,25.6l.35-3.77h.27c2.51,1.51,4.87,2.26,7.06,2.26,1.37,0,2.58-.46,2.58-1.48,0-1.24-1.64-1.59-3.61-2.02-4.2-.89-6.81-1.94-6.81-5.52s3.07-5.6,6.95-5.6c2.56,0,4.95.67,6.97,1.97l-.38,3.85h-.27c-2.29-1.35-4.52-2.02-6.57-2.02-1.32,0-2.29.54-2.29,1.43,0,1.18,1.56,1.54,3.45,1.97,4.36.97,6.95,2.21,6.95,5.87s-3.18,5.39-6.97,5.39c-2.72,0-5.36-.81-7.67-2.32Z"/>
    <path class="cls-3" d="M232.19,27.17l6.76-17.42h5.79l6.7,17.42v.48h-4.74l-1.19-3.2h-7.4l-1.18,3.2h-4.74v-.48ZM244.09,20.49l-2.26-6.08-2.26,6.08h4.53Z"/>
  </g>
  <g>
    <path class="cls-3" d="M45.12,35.76h3.85l5.49,12.71,5.52-12.71h3.8v17.91h-3.07v-12.92l-5.52,12.92h-1.48l-5.52-12.79v12.79h-3.07v-17.91Z"/>
    <path class="cls-3" d="M66.62,47.07c0-4.2,2.75-6.87,6.81-6.87,3.72,0,6.3,2.64,6.3,6.25v1.43h-10.02c.24,2.29,1.78,3.66,4.31,3.66,1.59,0,3.18-.41,4.55-1.21h.27l.38,2.15c-1.43.92-3.37,1.46-5.44,1.46-4.25,0-7.16-2.72-7.16-6.87ZM76.98,45.86c-.05-1.83-1.37-3.34-3.53-3.34s-3.5,1.29-3.8,3.34h7.32Z"/>
    <path class="cls-3" d="M81.94,47.07c0-3.99,2.29-6.87,6.08-6.87,1.72,0,3.15.62,4.01,1.8v-6.52h2.88v18.17h-2.72v-1.8c-.86,1.37-2.32,2.07-4.17,2.07-3.77,0-6.08-2.91-6.08-6.87ZM92.04,48.69v-3.23c-.35-1.59-1.75-2.58-3.5-2.58-2.32,0-3.61,1.86-3.61,4.2s1.32,4.2,3.61,4.2c1.78,0,3.15-1,3.5-2.58Z"/>
    <path class="cls-3" d="M98,37c0-1.08.7-1.75,1.8-1.75s1.75.67,1.75,1.75c0,1.02-.7,1.72-1.75,1.72-1.1,0-1.8-.7-1.8-1.72ZM98.32,40.48h2.91v13.19h-2.91v-13.19Z"/>
    <path class="cls-3" d="M103.85,47.07c0-4.15,2.75-6.87,6.89-6.87,2.02,0,3.9.59,5.2,1.62l-.38,2.4h-.27c-1.53-.97-2.77-1.35-4.15-1.35-2.69,0-4.31,1.75-4.31,4.2s1.72,4.2,4.31,4.2c1.37,0,2.64-.43,4.15-1.4h.27l.38,2.45c-1.29,1-3.18,1.62-5.2,1.62-4.17,0-6.89-2.75-6.89-6.87Z"/>
    <path class="cls-3" d="M117.8,49.63c0-2.72,2.15-4.17,4.98-4.17,1.59,0,3.04.54,3.9,1.37v-1.32c0-1.97-1.13-2.96-3.37-2.96-1.32,0-2.69.4-4.09,1.21h-.27l-.35-2.23c1.37-.84,3.21-1.32,5.12-1.32,3.79,0,5.87,1.83,5.87,4.95v8.51h-2.69v-1.48c-.84,1.02-2.32,1.75-4.12,1.75-2.88,0-4.98-1.62-4.98-4.31ZM126.69,50.38v-1.48c-.65-.97-1.72-1.51-3.15-1.51-1.75,0-2.8.89-2.8,2.24s1.05,2.21,2.8,2.21c1.4,0,2.53-.51,3.15-1.46Z"/>
    <path class="cls-3" d="M132.83,35.49h2.85v18.17h-2.85v-18.17Z"/>
    <path class="cls-3" d="M143.93,44.7c0-5.52,3.74-9.21,9.21-9.21,2.64,0,5.11.81,6.97,2.26l-.35,2.83h-.43c-1.72-1.51-3.8-2.21-5.79-2.21-4.01,0-6.46,2.69-6.46,6.33s2.5,6.33,6.46,6.33c1.97,0,4.04-.7,5.79-2.21h.43l.35,2.83c-1.86,1.45-4.34,2.29-6.97,2.29-5.55,0-9.21-3.8-9.21-9.24Z"/>
    <path class="cls-3" d="M161.66,47.07c0-4.2,2.75-6.87,6.81-6.87,3.72,0,6.3,2.64,6.3,6.25v1.43h-10.02c.24,2.29,1.78,3.66,4.31,3.66,1.59,0,3.18-.41,4.55-1.21h.27l.38,2.15c-1.43.92-3.37,1.46-5.44,1.46-4.26,0-7.16-2.72-7.16-6.87ZM172.03,45.86c-.05-1.83-1.37-3.34-3.53-3.34s-3.5,1.29-3.79,3.34h7.32Z"/>
    <path class="cls-3" d="M177.44,40.48h2.64v2.5c.81-1.8,2.45-2.77,4.47-2.77,2.88,0,4.79,1.97,4.79,4.85v8.62h-2.91v-7.89c0-1.8-1.16-2.91-2.99-2.91-1.62,0-2.8.94-3.15,2.58v8.21h-2.85v-13.19Z"/>
    <path class="cls-3" d="M193.5,49.95v-6.89h-2.23v-2.58h2.23v-3.1l2.88-.41v3.5h2.8v2.58h-2.8v6.6c0,1.08.57,1.59,1.59,1.59.46,0,.89-.08,1.26-.24h.27l.57,2.29c-.78.35-1.67.51-2.67.51-2.32,0-3.9-1.43-3.9-3.85Z"/>
    <path class="cls-3" d="M200.99,47.07c0-4.2,2.75-6.87,6.81-6.87,3.72,0,6.3,2.64,6.3,6.25v1.43h-10.02c.24,2.29,1.78,3.66,4.31,3.66,1.59,0,3.18-.41,4.55-1.21h.27l.38,2.15c-1.43.92-3.37,1.46-5.44,1.46-4.26,0-7.16-2.72-7.16-6.87ZM211.36,45.86c-.05-1.83-1.37-3.34-3.53-3.34s-3.5,1.29-3.79,3.34h7.32Z"/>
    <path class="cls-3" d="M216.78,40.48h2.64v1.62c.62-1.13,1.83-1.75,3.23-1.75.46,0,.94.05,1.43.16v2.83h-.21c-.48-.19-.94-.27-1.45-.27-1.51,0-2.77.94-2.77,2.4v8.21h-2.85v-13.19Z"/>
  </g>
</svg>